HIERARCHY
ROOT SpineBase
{
  OFFSET 0.000000 0.000000 0.000000
  CHANNELS 6 Xposition Yposition Zposition Zrotation Xrotation Yrotation
  JOINT SpineMid
  {
    OFFSET 0.000000 35.017407 0.000000
    CHANNELS 3 Zrotation Xrotation Yrotation
    JOINT SpineShoulder
    {
      OFFSET 0.023714 25.569230 -0.893820
      CHANNELS 3 Zrotation Xrotation Yrotation
      JOINT Neck
      {
        OFFSET -0.067519 8.394367 -0.730814
        CHANNELS 3 Zrotation Xrotation Yrotation
        JOINT Head
        {
          OFFSET -5.284552 9.635716 6.776279
          CHANNELS 3 Zrotation Xrotation Yrotation
          End Site
          {
            OFFSET 0 0 0
          }
        }
      }
      JOINT ShoulderLeft
      {
        OFFSET -9.538306 -6.114411 -10.127276
        CHANNELS 3 Zrotation Xrotation Yrotation
        JOINT ElbowLeft
        {
          OFFSET -5.857812 -25.972831 -3.335210
          CHANNELS 3 Zrotation Xrotation Yrotation
          JOINT WristLeft
          {
            OFFSET -7.551139 -25.270281 -3.146541
            CHANNELS 3 Zrotation Xrotation Yrotation
            JOINT HandLeft
            {
              OFFSET -6.038504 -8.656118 -0.380339
              CHANNELS 3 Zrotation Xrotation Yrotation
              JOINT HandTipLeft
              {
                OFFSET -3.314345 -6.018744 -1.853294
                CHANNELS 3 Zrotation Xrotation Yrotation
                End Site
                {
                  OFFSET 0 0 0
                }
              }
              JOINT ThumbLeft
              {
                OFFSET 4.805949 0.079149 -1.925568
                CHANNELS 3 Zrotation Xrotation Yrotation
                End Site
                {
                  OFFSET 0 0 0
                }
              }
            }
          }
        }
      }
      JOINT ShoulderRight
      {
        OFFSET 10.110630 -2.095667 2.737340
        CHANNELS 3 Zrotation Xrotation Yrotation
        JOINT ElbowRight
        {
          OFFSET -18.228780 -15.918974 -13.137251
          CHANNELS 3 Zrotation Xrotation Yrotation
          JOINT WristRight
          {
            OFFSET -10.804605 -23.827055 -5.321534
            CHANNELS 3 Zrotation Xrotation Yrotation
            JOINT HandRight
            {
              OFFSET -3.737657 -9.600088 0.819844
              CHANNELS 3 Zrotation Xrotation Yrotation
              JOINT HandTipRight
              {
                OFFSET -5.808938 -6.143114 -1.393461
                CHANNELS 3 Zrotation Xrotation Yrotation
                End Site
                {
                  OFFSET 0 0 0
                }
              }
              JOINT ThumbRight
              {
                OFFSET -4.132007 2.032490 -1.666785
                CHANNELS 3 Zrotation Xrotation Yrotation
                End Site
                {
                  OFFSET 0 0 0
                }
              }
            }
          }
        }
      }
    }
  }
  JOINT HipLeft
  {
    OFFSET -5.162874 0.530263 -5.257613
    CHANNELS 3 Zrotation Xrotation Yrotation
    JOINT KneeLeft
    {
      OFFSET 16.636300 -36.219291 7.768483
      CHANNELS 3 Zrotation Xrotation Yrotation
      JOINT AnkleLeft
      {
        OFFSET 2.327505 -30.319145 -1.925176
        CHANNELS 3 Zrotation Xrotation Yrotation
        JOINT FootLeft
        {
          OFFSET 7.734553 -2.760661 -10.883019
          CHANNELS 3 Zrotation Xrotation Yrotation
          End Site
          {
            OFFSET 0 0 0
          }
        }
      }
    }
  }
  JOINT HipRight
  {
    OFFSET 5.668000 1.570325 -2.603270
    CHANNELS 3 Zrotation Xrotation Yrotation
    JOINT KneeRight
    {
      OFFSET -3.072306 -31.253057 -3.119101
      CHANNELS 3 Zrotation Xrotation Yrotation
      JOINT AnkleRight
      {
        OFFSET 3.542994 -32.693497 -13.996033
        CHANNELS 3 Zrotation Xrotation Yrotation
        JOINT FootRight
        {
          OFFSET -0.632188 -6.600660 -2.791370
          CHANNELS 3 Zrotation Xrotation Yrotation
          End Site
          {
            OFFSET 0 0 0
          }
        }
      }
    }
  }
}
MOTION
Frames: 9
Frame Time: 0.033333
-19.331191 70.400847 295.296743 2.075780 -2.781729 -18.533785 0.514094 -0.291626 18.673124 -0.953676 0.232330 0.042095 -5.884237 1.402334 2.372914 0.000000 0.000000 0.000000 -6.129791 1.628781 1.012330 -114.934267 0.657082 18.095135 9.941696 6.274716 -9.174127 11.787614 -19.356932 16.599029 0.000000 0.000000 0.000000 0.000000 0.000000 0.000000 -1.571057 -0.250342 3.783578 -76.528280 -4.066176 15.189819 -36.537914 40.814719 4.992511 46.667115 -26.337611 23.069965 0.000000 0.000000 0.000000 0.000000 0.000000 0.000000 -0.653952 3.120282 19.231080 1.769773 -4.049752 -1.091123 -16.178715 -7.533780 48.276579 0.000000 0.000000 0.000000 45.925029 2.646031 12.855230 -63.665780 4.226562 16.864946 60.734178 41.800038 -40.946496 0.000000 0.000000 0.000000
-19.399352 70.724353 295.501214 2.051711 -3.051698 -17.893600 0.521205 -0.206947 18.033955 -0.994825 0.101681 0.041011 -7.874322 0.041420 2.980740 0.000000 0.000000 0.000000 -12.136039 -4.362542 2.914489 -116.080711 1.270786 28.120055 11.683540 4.758004 -10.954779 15.136694 -24.560094 15.535383 0.000000 0.000000 0.000000 0.000000 0.000000 0.000000 -3.682404 -0.068844 5.699936 -79.340820 -10.997623 13.438802 -36.852352 44.659093 11.676733 48.423022 -27.816952 23.764374 0.000000 0.000000 0.000000 0.000000 0.000000 0.000000 -0.832485 3.734868 18.755489 1.735174 -4.030720 -1.216445 -15.531233 -3.426963 51.058911 0.000000 0.000000 0.000000 45.370023 2.917249 11.963973 -63.229764 3.604945 16.393123 55.844647 44.402529 -37.875034 0.000000 0.000000 0.000000
-19.451025 70.989251 295.689180 2.073772 -3.333907 -17.218441 0.587685 -0.257062 17.366388 -1.012085 -0.152669 0.045154 -11.011407 -1.119877 4.434172 0.000000 0.000000 0.000000 -18.094847 -12.754984 4.527507 -116.931409 -0.750675 40.038093 10.245234 -2.755377 -15.993943 12.005150 -12.613032 19.630197 0.000000 0.000000 0.000000 0.000000 0.000000 0.000000 -5.153890 0.498878 6.893751 -81.655569 -19.029558 10.752455 -30.136291 36.923305 4.585684 42.893506 -11.235607 20.478799 0.000000 0.000000 0.000000 0.000000 0.000000 0.000000 -1.112570 4.375939 18.260593 1.668848 -3.892617 -1.338173 -14.135393 2.070531 49.985522 0.000000 0.000000 0.000000 45.269446 2.561202 11.343316 -63.564524 3.877873 16.669872 60.321263 43.184306 -40.799664 0.000000 0.000000 0.000000
-19.479694 71.288755 295.896731 2.136256 -3.610853 -16.483523 0.557892 -0.221774 16.638701 -0.986938 -0.183618 0.049241 -13.061041 -2.152022 5.258018 0.000000 0.000000 0.000000 -24.790270 -21.972861 5.189189 -111.136860 -7.166523 45.289366 9.986864 -1.877387 -14.907001 9.470158 -0.513627 26.073463 0.000000 0.000000 0.000000 0.000000 0.000000 0.000000 -8.673874 1.592963 8.625566 -81.235895 -26.199651 6.049173 -28.111844 22.038414 -5.393124 35.893488 15.350294 20.081879 0.000000 0.000000 0.000000 0.000000 0.000000 0.000000 -1.365678 5.144792 17.777193 1.516836 -4.033663 -1.534353 -13.972213 6.104096 53.921689 0.000000 0.000000 0.000000 45.227061 1.903737 10.828698 -64.065877 4.488181 17.202169 65.547698 41.050975 -43.923267 0.000000 0.000000 0.000000
-19.500050 71.591069 296.083467 2.222218 -3.893401 -15.799575 0.510087 -0.246869 15.965389 -0.896735 -0.146158 0.055442 -14.472367 -2.503436 5.980955 0.000000 0.000000 0.000000 -32.380814 -33.669557 4.528051 -98.321990 -17.362188 45.922779 12.066533 -7.047510 -14.302741 0.989113 22.031169 39.543805 0.000000 0.000000 0.000000 0.000000 0.000000 0.000000 -14.401721 4.281668 10.229186 -78.556293 -31.683120 -0.640832 -18.288117 -9.641039 -29.098548 -3.343637 55.007292 43.527510 0.000000 0.000000 0.000000 0.000000 0.000000 0.000000 -1.617279 6.022043 17.399815 1.383928 -4.803894 -1.806945 -13.451202 8.603914 53.552924 0.000000 0.000000 0.000000 43.338898 2.503147 9.908926 -62.121972 3.637810 16.095644 57.700502 45.150660 -39.184825 0.000000 0.000000 0.000000
-19.570354 71.965082 296.269244 2.213156 -4.202594 -15.237189 0.404303 -0.179684 15.405168 -0.907599 -0.087133 0.049488 -14.959416 -2.762517 6.242726 0.000000 0.000000 0.000000 -40.086035 -43.794685 2.114937 -78.126287 -29.564959 37.186577 19.765334 -6.823776 -9.095316 -19.671053 37.815855 60.445713 0.000000 0.000000 0.000000 0.000000 0.000000 0.000000 -15.978162 4.413920 11.462407 -76.865063 -35.868128 -3.730023 -9.194478 -32.320358 -43.210675 -75.397136 53.161533 99.566877 0.000000 0.000000 0.000000 0.000000 0.000000 0.000000 -1.783811 6.949493 17.140797 1.279462 -5.685211 -2.085926 -12.638853 9.808744 50.903016 0.000000 0.000000 0.000000 42.225887 2.881539 9.154185 -60.953421 2.769055 15.403501 56.161941 46.495830 -38.460319 0.000000 0.000000 0.000000
-19.671634 72.289260 296.389819 2.114556 -4.459225 -14.982786 0.282484 -0.207512 15.147908 -0.996510 -0.103183 0.033437 -14.868262 -2.353506 6.623842 0.000000 0.000000 0.000000 -47.848773 -57.430449 -3.198521 -49.050185 -34.449863 31.498451 32.481233 -2.127756 -7.956638 -53.465777 33.154294 85.024969 0.000000 0.000000 0.000000 0.000000 0.000000 0.000000 -13.539801 2.900923 11.800467 -76.238520 -38.185379 -2.681598 -3.618261 -41.335230 -47.533356 -95.052182 35.668587 110.897145 0.000000 0.000000 0.000000 0.000000 0.000000 0.000000 -1.774683 7.701075 17.115408 1.137593 -6.524296 -2.318594 -12.515865 10.914357 51.028912 0.000000 0.000000 0.000000 41.260339 3.493056 8.623556 -59.799177 1.777093 14.676151 55.210871 47.497666 -38.119813 0.000000 0.000000 0.000000
-19.795664 72.631438 296.497595 1.932612 -4.698885 -14.538035 0.117516 -0.214221 14.693108 -1.105340 -0.046475 0.010523 -13.819541 -1.771471 6.473644 0.000000 0.000000 0.000000 -56.163893 -66.248611 -10.561621 -26.137796 -32.721235 21.606819 35.327094 10.104260 -6.471139 -64.277951 16.325457 88.555299 0.000000 0.000000 0.000000 0.000000 0.000000 0.000000 -7.069761 -0.759320 11.649155 -77.127357 -37.342014 3.371424 -1.219720 -46.800843 -50.213499 -96.182638 17.527002 111.615683 0.000000 0.000000 0.000000 0.000000 0.000000 0.000000 -1.712065 8.392477 16.858035 1.058021 -7.309829 -2.512448 -12.731902 10.915515 51.843134 0.000000 0.000000 0.000000 40.299121 4.637611 7.625420 -58.521554 -0.182508 13.462056 55.345978 48.252639 -38.660768 0.000000 0.000000 0.000000
-19.935112 72.986758 296.614580 1.777347 -4.951207 -14.043672 0.025164 -0.257030 14.191596 -1.154848 0.003138 -0.004465 -13.202205 -1.090209 6.588574 0.000000 0.000000 0.000000 -65.164248 -71.917232 -19.218353 -10.566494 -29.608507 10.605068 34.837980 18.421437 -6.893948 -71.984127 -1.850440 93.619015 0.000000 0.000000 0.000000 0.000000 0.000000 0.000000 -0.171049 -3.997300 10.980718 -78.494479 -37.214789 9.437414 -1.736806 -50.096703 -51.893872 -79.974579 6.014187 108.061524 0.000000 0.000000 0.000000 0.000000 0.000000 0.000000 -1.703526 9.053141 16.535404 1.020640 -7.874937 -2.675721 -12.614482 11.578734 51.924439 0.000000 0.000000 0.000000 39.674916 5.023777 6.936010 -57.653567 -1.003123 12.904290 54.607628 48.988185 -38.377795 0.000000 0.000000 0.000000
